<?xml version="1.0" encoding="UTF-8" standalone="no"?>
<svg xmlns:dc="http://purl.org/dc/elements/1.1/" xmlns:cc="http://creativecommons.org/ns#" xmlns:rdf="http://www.w3.org/1999/02/22-rdf-syntax-ns#" xmlns:svg="http://www.w3.org/2000/svg" xmlns="http://www.w3.org/2000/svg" xmlns:sodipodi="http://sodipodi.sourceforge.net/DTD/sodipodi-0.dtd" xmlns:inkscape="http://www.inkscape.org/namespaces/inkscape" width="16px" height="16px" viewBox="0 0 16 16" id="svg2" version="1.1" inkscape:version="0.91 r13725" sodipodi:docname="17.svg">
  <defs id="defs4">
    <pattern y="0" x="0" height="6" width="6" patternUnits="userSpaceOnUse" id="EMFhbasepattern"/>
    <pattern y="0" x="0" height="6" width="6" patternUnits="userSpaceOnUse" id="EMFhbasepattern-4"/>
    <pattern y="0" x="0" height="6" width="6" patternUnits="userSpaceOnUse" id="EMFhbasepattern-3"/>
  </defs>
  <sodipodi:namedview id="base" pagecolor="#ffffff" bordercolor="#666666" borderopacity="1.0" inkscape:pageopacity="0.0" inkscape:pageshadow="2" inkscape:zoom="11.2" inkscape:cx="-17.133424" inkscape:cy="-1.6324547" inkscape:document-units="px" inkscape:current-layer="layer1" showgrid="true" units="px" inkscape:window-width="1366" inkscape:window-height="715" inkscape:window-x="-8" inkscape:window-y="-8" inkscape:window-maximized="1" inkscape:snap-bbox="true" inkscape:bbox-paths="true" inkscape:bbox-nodes="true" inkscape:snap-bbox-edge-midpoints="true" inkscape:snap-bbox-midpoints="true">
    <inkscape:grid type="xygrid" id="grid3336"/>
  </sodipodi:namedview>
  
  <g inkscape:label="Layer 1" inkscape:groupmode="layer" id="layer1" transform="translate(0,-1036.3622)">
    <path style="color:#000000;font-style:normal;font-variant:normal;font-weight:normal;font-stretch:normal;font-size:medium;line-height:normal;font-family:sans-serif;text-indent:0;text-align:start;text-decoration:none;text-decoration-line:none;text-decoration-style:solid;text-decoration-color:#000000;letter-spacing:normal;word-spacing:normal;text-transform:none;direction:ltr;block-progression:tb;writing-mode:lr-tb;baseline-shift:baseline;text-anchor:start;white-space:normal;clip-rule:nonzero;display:inline;overflow:visible;visibility:visible;opacity:1;isolation:auto;mix-blend-mode:normal;color-interpolation:sRGB;color-interpolation-filters:linearRGB;solid-color:#000000;solid-opacity:1;fill:#000000;fill-opacity:1;fill-rule:nonzero;stroke:none;stroke-width:1;stroke-linecap:round;stroke-linejoin:round;stroke-miterlimit:4;stroke-dasharray:none;stroke-dashoffset:0;stroke-opacity:1;color-rendering:auto;image-rendering:auto;shape-rendering:auto;text-rendering:auto;enable-background:accumulate" d="M 8.4980469 1 C 6.5775829 1 4.6576836 1.7309594 3.1953125 3.1933594 C 0.27057041 6.1180594 0.27056334 10.875981 3.1953125 13.800781 C 6.1200547 16.725481 10.876039 16.725481 13.800781 13.800781 C 16.725523 10.875981 16.725523 6.1180594 13.800781 3.1933594 C 12.338407 1.7309594 10.418511 1 8.4980469 1 z M 8.4980469 1.9941406 C 10.160495 1.9941406 11.82245 2.6290906 13.09375 3.9003906 C 15.636344 6.4429906 15.636344 10.55115 13.09375 13.09375 C 10.551157 15.63635 6.4449372 15.63635 3.9023438 13.09375 C 2.6310436 11.82245 1.9941397 10.160497 1.9941406 8.4980469 C 1.9941407 8.2902406 2.0035734 8.0820423 2.0234375 7.875 C 2.1624865 6.425704 2.7899592 5.0127781 3.9023438 3.9003906 C 5.1736404 2.6290906 6.8355991 1.9941406 8.4980469 1.9941406 z M 10.964844 5.515625 A 0.50005 0.50005 0 0 0 10.960938 5.5175781 A 0.50005 0.50005 0 0 0 10.619141 5.6699219 L 8.4960938 7.7910156 L 6.375 5.6699219 A 0.50005 0.50005 0 0 0 6.0175781 5.5175781 A 0.50005 0.50005 0 0 0 5.6679688 6.3769531 L 7.7890625 8.4980469 L 5.6679688 10.619141 A 0.50005 0.50005 0 1 0 6.375 11.326172 L 8.4960938 9.2050781 L 10.619141 11.326172 A 0.50005 0.50005 0 1 0 11.326172 10.619141 L 9.2050781 8.4980469 L 11.326172 6.3769531 A 0.50005 0.50005 0 0 0 10.964844 5.515625 z " transform="translate(0,1036.3622)" id="circle5017"/>
  </g>

	
	
	
	<metadata>
		<rdf:RDF xmlns:rdf="http://www.w3.org/1999/02/22-rdf-syntax-ns#" xmlns:rdfs="http://www.w3.org/2000/01/rdf-schema#" xmlns:dc="http://purl.org/dc/elements/1.1/">
			<rdf:Description about="https://iconscout.com/legal#licenses" dc:title="Cancel, Close, Delete, Exit, Discard, Dismiss, Remove" dc:description="Cancel, Close, Delete, Exit, Discard, Dismiss, Remove" dc:publisher="Iconscout" dc:date="2016-12-14" dc:format="image/svg+xml" dc:language="en">
				<dc:creator>
					<rdf:Bag>
						<rdf:li>Jemis Mali</rdf:li>
					</rdf:Bag>
				</dc:creator>
			</rdf:Description>
		</rdf:RDF>
    </metadata></svg>
