<?xml version="1.0" encoding="utf-8"?>
<!-- Generator: Adobe Illustrator 16.0.0, SVG Export Plug-In . SVG Version: 6.00 Build 0)  -->
<!DOCTYPE svg PUBLIC "-//W3C//DTD SVG 1.1//EN" "http://www.w3.org/Graphics/SVG/1.1/DTD/svg11.dtd">
<svg version="1.1" id="Layer_1" xmlns="http://www.w3.org/2000/svg" xmlns:xlink="http://www.w3.org/1999/xlink" x="0px" y="0px"
	 width="17.229px" height="18px" viewBox="-3.989 -4.168 17.229 18" enable-background="new -3.989 -4.168 17.229 18"
	 xml:space="preserve">
<path fill="#939598" d="M12.97,12.119L8.634,7.36L8.287,6.332c0.732-1.08,1.166-2.379,1.166-3.778c0-3.706-3.015-6.721-6.722-6.721
	c-3.706,0-6.721,3.016-6.721,6.721c0,3.708,3.015,6.721,6.721,6.721c1.233,0,2.373-0.355,3.368-0.938l1.053,0.44l4.307,4.722
	c0.201,0.222,0.478,0.335,0.757,0.335c0.247,0,0.494-0.088,0.688-0.27C13.323,13.182,13.355,12.537,12.97,12.119z M-1.94,2.553
	c0-2.576,2.097-4.672,4.672-4.672c2.577,0,4.675,2.096,4.675,4.672c0,1.132-0.424,2.161-1.099,2.97L5.318,6.441
	c-0.743,0.494-1.63,0.785-2.587,0.785C0.156,7.226-1.94,5.13-1.94,2.553z"/>
</svg>
